<?xml version="1.0" encoding="UTF-8"?>
<svg id="Layer_1" xmlns="http://www.w3.org/2000/svg" version="1.1" xmlns:xlink="http://www.w3.org/1999/xlink" viewBox="0 0 1024 300">
  <!-- Generator: Adobe Illustrator 29.8.2, SVG Export Plug-In . SVG Version: 2.1.1 Build 3)  -->
  <defs>
    <style>
      .st0 {
        fill: url(#linear-gradient2);
      }

      .st1 {
        fill: #000;
      }

      .st2 {
        fill: #b21e3e;
      }

      .st3 {
        fill: url(#linear-gradient1);
      }

      .st4 {
        fill: url(#linear-gradient7);
      }

      .st5 {
        fill: url(#linear-gradient4);
      }

      .st6 {
        fill: url(#linear-gradient5);
      }

      .st7 {
        fill: url(#linear-gradient3);
      }

      .st8 {
        fill: url(#linear-gradient6);
      }

      .st9 {
        fill: #f9b716;
      }

      .st10 {
        fill: url(#linear-gradient);
      }
    </style>
    <linearGradient id="linear-gradient" x1="252.41" y1="289.93" x2="267.43" y2="11.81" gradientUnits="userSpaceOnUse">
      <stop offset="0" stop-color="#1c528b"/>
      <stop offset="1" stop-color="#286eb7"/>
    </linearGradient>
    <linearGradient id="linear-gradient1" x1="262.89" y1="290.5" x2="277.9" y2="12.37" xlink:href="#linear-gradient"/>
    <linearGradient id="linear-gradient2" x1="264.72" y1="290.6" x2="279.74" y2="12.47" xlink:href="#linear-gradient"/>
    <linearGradient id="linear-gradient3" x1="305.28" y1="292.78" x2="320.29" y2="14.66" xlink:href="#linear-gradient"/>
    <linearGradient id="linear-gradient4" x1="307.46" y1="292.9" x2="322.47" y2="14.78" xlink:href="#linear-gradient"/>
    <linearGradient id="linear-gradient5" x1="284.31" y1="291.65" x2="299.33" y2="13.53" xlink:href="#linear-gradient"/>
    <linearGradient id="linear-gradient6" x1="258.31" y1="290.25" x2="273.32" y2="12.13" xlink:href="#linear-gradient"/>
    <linearGradient id="linear-gradient7" x1="233.82" y1="288.93" x2="248.83" y2="10.8" xlink:href="#linear-gradient"/>
  </defs>
  <g>
    <path class="st2" d="M164.76,210.92c-12.58,6.86-23.9,14.43-33.78,21.92-1.66.06-3.32.13-4.96.18-32.91,1.06-61.89-1.26-83.74-6.48-24.32-5.8-39.8-15.18-42.01-27.5-2.51-14.01,12.58-29.32,39.42-43.17-12.53,9.13-18.96,18.58-17.38,27.43,1.53,8.6,10.46,15.56,24.79,20.62,23.52,8.27,61.6,11.4,105.55,8.07,3.99-.3,8.04-.65,12.11-1.07Z"/>
    <path class="st2" d="M175.36,118.24l-41.06,35.32-25.99-20.81-10.29,66.12c-21.07-1.55-36.58-5.24-46.77-9.59l6.44-37.05,18-103.6,93.7,65.42,5.98,4.18Z"/>
    <path class="st2" d="M119.08,240.34c-21.49,20.66-33.7,35.58-33.7,35.58l-45.95-24.32,3.58-18.57c18.38,4.81,41.61,7.38,68.79,7.38,2.41,0,4.84-.02,7.29-.07Z"/>
    <path class="st9" d="M231.83,89l-3.64,18.95-10.94,56.95c-16.85,9.93-32.5,20.66-46.7,31.4-17.42,2.22-34.36,3.34-50.53,3.34-4.68,0-9.17-.1-13.45-.29,18.93-22.77,52.01-58.9,93.77-89.52,10.01-7.35,20.53-14.39,31.48-20.83Z"/>
    <g>
      <path class="st10" d="M311.92,193.64c-18.92,8.79-42.54,16.81-69.26,23.35-16.54,4.04-34.26,7.53-52.8,10.24-11.73,1.72-23.27,3.07-34.49,4.04,14.56-9.53,31.92-19.01,51.47-26.29,15.36-2.82,29.91-6.21,43.35-10.03,54.66-15.54,90.81-38.17,87.29-57.85-1.25-6.99-7.38-12.9-17.33-17.57h0c-.27-.13-.54-.26-.81-.38.27.06.55.14.83.21,23.02,5.84,37.6,15.02,39.76,26.95,2.76,15.42-15.84,32.43-48,47.33Z"/>
      <path class="st3" d="M308.88,198.64l-6.13,49.12-80.19,29.73,16.67-53.9c26.05-6.78,49.81-15.27,69.66-24.95Z"/>
      <path class="st0" d="M319.64,97.06l-.64,4.97-.94,7.2-.02.17h0s-1.65,12.83-1.65,12.83l-.26,2-2.94,22.67c-5.39,4.76-13.01,9.99-23.11,15.3-10.7,5.64-23.05,10.83-36.62,15.44l11.33-36.72c-12.97,5.43-25.48,11.59-37.43,18.21l8.49-43.6,18.92-2.71v-21.4h20.5v-12.39h23.43v18.02h20.95Z"/>
      <polygon class="st7" points="327.3 91.43 304.1 91.43 306.39 65.75 329.59 65.75 327.3 91.43"/>
      <polygon class="st5" points="331.9 45.25 308.7 45.25 310.99 22.5 334.19 22.5 331.9 45.25"/>
      <polygon class="st6" points="306.09 65.75 286.15 65.75 288.12 43.68 308.06 43.68 306.09 65.75"/>
      <polygon class="st8" points="278.36 76.37 260.66 76.37 262.4 56.78 280.11 56.78 278.36 76.37"/>
      <polygon class="st4" points="252.24 90.04 236.14 90.04 237.73 74.09 253.83 74.09 252.24 90.04"/>
    </g>
  </g>
  <g>
    <g>
      <path class="st2" d="M403.17,76.85h20.69l13.61,37.28c1.68,4.95,3.15,10.33,4.83,15.49h.52c1.68-5.16,3.1-10.54,4.78-15.49l13.19-37.28h20.69v83.9h-17.27v-30.79c0-8.18,1.53-20.39,2.42-28.5h-.51l-6.88,19.85-11.86,32.14h-10.53l-11.88-32.14-6.69-19.85h-.52c.89,8.12,2.42,20.33,2.42,28.5v30.79h-17.01v-83.9Z"/>
      <path class="st2" d="M501.25,76.85h52.57v15.91h-33.6v16.85h28.6v15.91h-28.6v19.33h34.89v15.91h-53.85v-83.9Z"/>
      <path class="st2" d="M566.37,150.16l10.89-13.01c5.97,5.19,13.71,8.77,20.61,8.77,7.92,0,11.79-3.12,11.79-8.1,0-5.28-4.77-6.98-12.1-9.99l-10.9-4.65c-8.69-3.54-16.93-10.68-16.93-22.87,0-13.9,12.42-25,29.88-25,9.66,0,19.76,3.81,26.99,11l-9.57,11.95c-5.53-4.24-10.78-6.57-17.41-6.57s-10.7,2.72-10.7,7.52c0,5.15,5.49,7.02,12.81,9.93l10.69,4.33c10.25,4.14,16.64,10.96,16.64,22.82,0,13.93-11.62,26-31.61,26-10.92,0-22.52-4.13-31.08-12.13Z"/>
      <path class="st2" d="M643.36,76.85h18.97v32.33h28.96v-32.33h18.97v83.9h-18.97v-35.02h-28.96v35.02h-18.97v-83.9Z"/>
      <path class="st2" d="M746.54,92.75h-23.09v-15.91h65.15v15.91h-23.09v67.99h-18.97v-67.99Z"/>
      <path class="st2" d="M801.69,76.85h52.57v15.91h-33.6v16.85h28.6v15.91h-28.6v19.33h34.89v15.91h-53.86v-83.9Z"/>
      <path class="st2" d="M868.26,119.28c0-27.83,18.4-43.98,39.6-43.98,10.84,0,19.58,5.1,25.23,10.89l-10,12.17c-4.21-3.92-8.74-6.68-14.81-6.68-11.5,0-20.59,10.14-20.59,26.96s8.02,27.27,20.29,27.27c6.89,0,12.31-3.39,16.41-7.84l10,11.91c-6.97,8.1-16.24,12.31-27.09,12.31-21.28,0-39.04-14.75-39.04-43.01Z"/>
      <path class="st2" d="M947.14,76.85h18.97v32.33h28.96v-32.33h18.97v83.9h-18.97v-35.02h-28.96v35.02h-18.97v-83.9Z"/>
    </g>
    <g>
      <path class="st1" d="M484.6,212.72c0-11.66,6.42-18.74,15.56-18.74s15.56,7.1,15.56,18.74-6.42,19-15.56,19-15.56-7.34-15.56-19ZM510.94,212.72c0-9.07-4.28-14.67-10.78-14.67s-10.78,5.6-10.78,14.67,4.28,15.16,10.78,15.16,10.78-5.89,10.78-15.16ZM497.65,230.94l4.81-.37c1.47,3.85,5.03,5.76,9.33,5.76,1.62,0,2.86-.24,3.83-.53l.89,3.58c-1.09.43-3.02.84-5.2.84-6.99,0-11.71-3.99-13.67-9.29Z"/>
      <path class="st1" d="M523.4,216.02v-21.38h4.63v21.5c0,8.75,3.7,11.5,8.45,11.5s8.63-2.75,8.63-11.5v-21.5h4.44v21.38c0,11.69-5.64,15.7-13.08,15.7s-13.09-4.02-13.09-15.7Z"/>
      <path class="st1" d="M565.93,194.65h5.23l12.32,36.41h-4.91l-6.35-20.34c-1.31-4.07-2.48-8.07-3.65-12.27h-.22c-1.13,4.22-2.3,8.2-3.6,12.27l-6.42,20.34h-4.72l12.32-36.41ZM560.09,216.27h16.77v3.7h-16.77v-3.7Z"/>
      <path class="st1" d="M588.4,194.65h4.63v32.49h15.89v3.92h-20.53v-36.41Z"/>
      <path class="st1" d="M615.36,194.65h4.63v36.41h-4.63v-36.41Z"/>
      <path class="st1" d="M637.53,198.57h-11.02v-3.92h26.66v3.92h-11.01v32.49h-4.63v-32.49Z"/>
      <path class="st1" d="M664.81,216.95l-10.94-22.3h4.95l4.7,10.28c1.17,2.68,2.27,5.21,3.52,7.94h.22c1.26-2.72,2.52-5.26,3.64-7.94l4.7-10.28h4.8l-10.94,22.3v14.11h-4.63v-14.11Z"/>
      <path class="st1" d="M693.16,226.32l2.77-3.18c2.62,2.72,6.26,4.51,10.05,4.51,4.78,0,7.61-2.38,7.61-5.92,0-3.72-2.64-4.9-6.07-6.41l-5.23-2.31c-3.39-1.45-7.37-4.02-7.37-9.38s4.85-9.66,11.46-9.66c4.32,0,8.16,1.87,10.72,4.51l-2.46,2.98c-2.23-2.11-4.9-3.41-8.26-3.41-4.08,0-6.79,2.06-6.79,5.32,0,3.51,3.17,4.82,6.03,6.03l5.19,2.25c4.21,1.81,7.5,4.32,7.5,9.74,0,5.75-4.75,10.35-12.41,10.35-5.11,0-9.55-2.09-12.74-5.41Z"/>
      <path class="st1" d="M723.31,212.72c0-11.66,6.42-18.74,15.56-18.74s15.56,7.1,15.56,18.74-6.42,19-15.56,19-15.56-7.34-15.56-19ZM749.65,212.72c0-9.07-4.28-14.67-10.78-14.67s-10.78,5.6-10.78,14.67,4.28,14.93,10.78,14.93,10.78-5.86,10.78-14.93Z"/>
      <path class="st1" d="M762.26,194.65h4.63v32.49h15.89v3.92h-20.53v-36.41Z"/>
      <path class="st1" d="M787.46,216.02v-21.38h4.63v21.5c0,8.75,3.7,11.5,8.45,11.5s8.63-2.75,8.63-11.5v-21.5h4.44v21.38c0,11.69-5.64,15.7-13.08,15.7s-13.09-4.02-13.09-15.7Z"/>
      <path class="st1" d="M830.97,198.57h-11.02v-3.92h26.66v3.92h-11.01v32.49h-4.63v-32.49Z"/>
      <path class="st1" d="M853.13,194.65h4.63v36.41h-4.63v-36.41Z"/>
      <path class="st1" d="M865.6,212.72c0-11.66,6.42-18.74,15.56-18.74s15.56,7.1,15.56,18.74-6.42,19-15.56,19-15.56-7.34-15.56-19ZM891.94,212.72c0-9.07-4.28-14.67-10.78-14.67s-10.78,5.6-10.78,14.67,4.28,14.93,10.78,14.93,10.78-5.86,10.78-14.93Z"/>
      <path class="st1" d="M904.55,194.65h4.79l13.18,22.89,3.93,7.54h.22c-.23-3.67-.59-7.78-.59-11.58v-18.85h4.4v36.41h-4.79l-13.18-22.91-3.93-7.52h-.22c.23,3.68.59,7.57.59,11.37v19.06h-4.4v-36.41Z"/>
    </g>
    <g>
      <path class="st1" d="M467.72,213.48c-4.46,1.63-9.02,2.3-13.67,2.7-4.57.43-9.12-.34-13.67-.6-8.87-.49-18.52-1.23-27.33-2.1,0,0,0-.6,0-.6,4.56-.48,9.11-.8,13.67-1.2,6.36-.52,14.18-.83,20.5-1.47,6.93-.48,13.88.39,20.5,2.67,0,0,0,.6,0,.6h0Z"/>
      <path class="st1" d="M1004.14,213.48c-8.81.87-18.47,1.61-27.33,2.1-2.28.13-4.56.37-6.83.57-4.58.41-9.14-.04-13.67-.85-2.28-.44-4.56-.96-6.83-1.82v-.6c6.62-2.28,13.57-3.15,20.5-2.67,3.95.42,9.64.75,13.67.98,6.62.48,13.92,1.03,20.5,1.7,0,0,0,.6,0,.6h0Z"/>
    </g>
  </g>
</svg>